PathFileType	4	(X/Y/Z)	/Users/itak/Documents/Research/Walk-IL/dataset/trc/00307_00010.trc
DataRate	CameraRate	NumFrames	NumMarkers	Units	OrigDataRate	OrigDataStartFrame	OrigNumFrames
100.000000	100.000000	4	57	mm	100.000000	0	509
Frame#	Time	RPSI			LPSI			L3			STRN			T10			C7			CLAV			RBAK			LBAK			LSHO			LUPA			LAEL			LAOL			LWTS			LWPS			LFRA			LIFD			LHPS			RSHO			RUPA			RAEL			RAOL			RWTS			RFRA			RIFD			RHTS			RHPS			RBHD			LFHD			RFHD			LBHD			LHIP			RHIP			RASI			LASI			LKNE			LTHI			LANK			LTIP			LTOE			LMT1			LMT5			LHEE			RKNE			RTHI			RANK			RTIP			RTOE			RMT1			RMT5			RHEE			LHTS			RWPS			*53			*54			*55			*56			
		X1	Y1	Z1	X2	Y2	Z2	X3	Y3	Z3	X4	Y4	Z4	X5	Y5	Z5	X6	Y6	Z6	X7	Y7	Z7	X8	Y8	Z8	X9	Y9	Z9	X10	Y10	Z10	X11	Y11	Z11	X12	Y12	Z12	X13	Y13	Z13	X14	Y14	Z14	X15	Y15	Z15	X16	Y16	Z16	X17	Y17	Z17	X18	Y18	Z18	X19	Y19	Z19	X20	Y20	Z20	X21	Y21	Z21	X22	Y22	Z22	X23	Y23	Z23	X24	Y24	Z24	X25	Y25	Z25	X26	Y26	Z26	X27	Y27	Z27	X28	Y28	Z28	X29	Y29	Z29	X30	Y30	Z30	X31	Y31	Z31	X32	Y32	Z32	X33	Y33	Z33	X34	Y34	Z34	X35	Y35	Z35	X36	Y36	Z36	X37	Y37	Z37	X38	Y38	Z38	X39	Y39	Z39	X40	Y40	Z40	X41	Y41	Z41	X42	Y42	Z42	X43	Y43	Z43	X44	Y44	Z44	X45	Y45	Z45	X46	Y46	Z46	X47	Y47	Z47	X48	Y48	Z48	X49	Y49	Z49	X50	Y50	Z50	X51	Y51	Z51	X52	Y52	Z52	X53	Y53	Z53	X54	Y54	Z54	X55	Y55	Z55	X56	Y56	Z56	X57	Y57	Z57	

1	0	-1246.34326171875	1013.574645996094	-230.655029296875	-1237.658935546875	1003.515991210938	-404.2902221679688	-1222.791137695312	1077.173461914062	-321.1718139648438	-971.5531005859375	1255.244995117188	-320.6149291992188	-1236.528442382812	1189.10107421875	-324.5831604003906	-1194.27587890625	1433.81787109375	-345.1741638183594	-1035.984008789062	1355.801879882812	-329.3606567382812	-1245.5986328125	1297.23681640625	-267.1078796386719	-1203.879150390625	1395.336791992188	-450.0636901855469	-1110.578125	1402.217041015625	-498.8812866210938	-1124.999267578125	1280.4091796875	-569.918701171875	-1099.737182617188	1076.251220703125	-574.3899536132812	-1171.501342773438	1061.42822265625	-528.3724975585938	-1030.395874023438	857.720458984375	-492.938720703125	-1040.846313476562	842.8429565429688	-562.9441528320312	-1078.265991210938	972.028076171875	-573.954833984375	-1016.131896972656	675.1775512695312	-485.8002319335938	-1031.62890625	755.2039794921875	-556.0864868164062	-1132.059692382812	1416.051635742188	-182.3008880615234	-1137.001342773438	1356.383666992188	-114.246696472168	-1110.79638671875	1087.103881835938	-67.75576019287109	-1152.100952148438	1078.20849609375	-153.2871246337891	-1005.481140136719	869.3616943359375	-142.1427764892578	-1079.009765625	1021.269104003906	-60.78125	-989.8411254882812	683.9487915039062	-148.6127777099609	-967.1652221679688	755.5618896484375	-133.8056030273438	-1003.159729003906	751.3357543945312	-72.96486663818359	-1197.079467773438	1593.823608398438	-298.0425720214844	-998.982177734375	1646.030395507812	-357.037353515625	-1030.395141601562	1644.69677734375	-269.0902404785156	-1147.679443359375	1585.919189453125	-434.9166564941406	-1167.995727539062	953.2843627929688	-497.0737915039062	-1148.386474609375	963.7289428710938	-124.0785293579102	-1026.736938476562	967.9790649414062	-190.9427337646484	-1029.715087890625	960.2581787109375	-442.6573791503906	-1121.734130859375	487.2554321289062	-463.548828125	-1120.49462890625	629.5891723632812	-484.9489135742188	-1206.761962890625	47.67247772216797	-448.3912963867188	-1175.488159179688	265.9797058105469	-465.2205505371094	-997.6585083007812	41.63391494750977	-401.5774230957031	-1064.667724609375	34.50733184814453	-357.1594543457031	-1085.069702148438	44.20701217651367	-468.7774963378906	-1249.754150390625	39.82507705688477	-387.1849975585938	-1105.363037109375	491.7992858886719	-140.9455108642578	-1086.07470703125	755.3577270507812	-118.3229370117188	-1176.433471679688	45.74450302124023	-155.4789733886719	-1100.531494140625	368.5124816894531	-146.7481384277344	-977.4286499023438	48.92409515380859	-200.4217224121094	-1032.675903320312	48.26907730102539	-242.3892974853516	-1072.291259765625	37.55990982055664	-129.9348907470703	-1223.994018554688	43.23648071289062	-209.3906860351562	-996.95166015625	761.6011352539062	-500.0299987792969	-1033.176879882812	861.6640014648438	-61.42055892944336	nan	nan	nan	nan	nan	nan	nan	nan	nan	nan	nan	nan	
2	0.01	-1246.200927734375	1013.607482910156	-230.7674102783203	-1237.340576171875	1003.522338867188	-404.369140625	-1222.586059570312	1077.145263671875	-321.3013916015625	-971.406982421875	1255.256958007812	-320.5426330566406	-1236.369995117188	1189.028076171875	-324.7061462402344	-1194.173950195312	1433.770263671875	-345.2139892578125	-1035.839599609375	1355.78466796875	-329.2998352050781	-1245.457641601562	1297.17041015625	-267.2093505859375	-1203.703002929688	1395.310302734375	-450.1113891601562	-1110.372924804688	1402.215698242188	-498.8788452148438	-1124.672119140625	1280.460571289062	-569.9644165039062	-1099.475341796875	1076.301513671875	-574.5420532226562	-1171.117065429688	1061.454467773438	-528.5106811523438	-1030.133178710938	857.6517333984375	-493.2952270507812	-1040.708129882812	842.8748168945312	-563.3199462890625	-1078.025390625	972.0742797851562	-574.2048950195312	-1016.181030273438	675.0830078125	-486.4043273925781	-1031.642944335938	755.2380981445312	-556.6068115234375	-1132.07666015625	1415.963989257812	-182.3112335205078	-1137.107421875	1356.31591796875	-114.281364440918	-1111.107055664062	1087.055541992188	-67.66485595703125	-1152.044311523438	1078.136840820312	-153.4040374755859	-1005.511840820312	869.26220703125	-141.288818359375	-1079.323852539062	1021.259216308594	-60.47338104248047	-989.87841796875	683.8508911132812	-147.5167999267578	-967.1641845703125	755.4110717773438	-132.6302337646484	-1003.60107421875	751.3090209960938	-72.00368499755859	-1196.938842773438	1593.886352539062	-297.9440002441406	-998.8245849609375	1645.963256835938	-357.0251770019531	-1030.216064453125	1644.64404296875	-269.0578308105469	-1147.599243164062	1585.91650390625	-434.859130859375	-1167.681884765625	953.2803955078125	-497.115234375	-1148.322387695312	963.736328125	-124.1617813110352	-1026.580688476562	967.9526977539062	-190.9104309082031	-1029.353759765625	960.15966796875	-442.6744689941406	-1121.660278320312	487.2405700683594	-463.5380249023438	-1120.291870117188	629.5546875	-484.927978515625	-1206.751220703125	47.67488479614258	-448.3805847167969	-1175.457885742188	265.9925231933594	-465.220703125	-997.6677856445312	41.63360214233398	-401.5840148925781	-1064.672241210938	34.51858139038086	-357.1675109863281	-1085.063354492188	44.20453643798828	-468.7764892578125	-1249.779541015625	39.85139465332031	-387.1969299316406	-1105.352416992188	491.7958374023438	-140.9585876464844	-1086.008056640625	755.3473510742188	-118.2508850097656	-1176.42431640625	45.75090408325195	-155.4856872558594	-1100.537719726562	368.5205078125	-146.7486724853516	-977.4263916015625	48.91302871704102	-200.4213714599609	-1032.667358398438	48.2641716003418	-242.3884124755859	-1072.292236328125	37.56198883056641	-129.9342956542969	-1223.986083984375	43.24565887451172	-209.3974609375	-996.2325439453125	761.7600708007812	-500.5063781738281	-1033.707153320312	861.5153198242188	-60.67047882080078	nan	nan	nan	nan	nan	nan	nan	nan	nan	nan	nan	nan	
3	0.02	-1246.012451171875	1013.651550292969	-230.9067687988281	-1236.954223632812	1003.531127929688	-404.4743957519531	-1222.314697265625	1077.111694335938	-321.4569091796875	-971.2210693359375	1255.270141601562	-320.4583129882812	-1236.180541992188	1188.941284179688	-324.8583679199219	-1194.038330078125	1433.7138671875	-345.2624816894531	-1035.660522460938	1355.760498046875	-329.2269287109375	-1245.28271484375	1297.08740234375	-267.3394775390625	-1203.484252929688	1395.277221679688	-450.171630859375	-1110.107666015625	1402.217407226562	-498.8754577636719	-1124.259643554688	1280.5224609375	-570.0225830078125	-1099.146118164062	1076.3642578125	-574.7319946289062	-1170.67626953125	1061.486938476562	-528.6879272460938	-1029.821533203125	857.5759887695312	-493.7337646484375	-1040.531005859375	842.9103393554688	-563.7920532226562	-1077.728637695312	972.1285400390625	-574.5177612304688	-1016.243835449219	674.986083984375	-487.1602478027344	-1031.614990234375	755.273681640625	-557.2391967773438	-1132.087524414062	1415.858032226562	-182.3252410888672	-1137.220947265625	1356.231201171875	-114.3241653442383	-1111.475219726562	1086.993774414062	-67.55303955078125	-1151.9716796875	1078.048095703125	-153.5417175292969	-1005.559387207031	869.12744140625	-140.2554016113281	-1079.710815429688	1021.243347167969	-60.10136795043945	-989.961181640625	683.7250366210938	-146.1675262451172	-967.2098999023438	755.2095947265625	-131.1862945556641	-1004.1796875	751.261962890625	-70.82605743408203	-1196.744873046875	1593.952392578125	-297.8108825683594	-998.6223754882812	1645.889404296875	-357.0244750976562	-1029.980712890625	1644.579711914062	-269.0279235839844	-1147.489501953125	1585.906860351562	-434.7763977050781	-1167.277465820312	953.2716064453125	-497.1714172363281	-1148.22412109375	963.7494506835938	-124.2513961791992	-1026.385498046875	967.919921875	-190.8684387207031	-1028.910034179688	960.0447998046875	-442.6841125488281	-1121.572631835938	487.220947265625	-463.52197265625	-1120.041015625	629.5115356445312	-484.9001770019531	-1206.739379882812	47.67988586425781	-448.3686828613281	-1175.423095703125	266.0064086914062	-465.2182006835938	-997.6759643554688	41.63257217407227	-401.5921630859375	-1064.673950195312	34.5311164855957	-357.1746215820312	-1085.057250976562	44.20206832885742	-468.7743835449219	-1249.807983398438	39.88331985473633	-387.2095336914062	-1105.34375	491.7928161621094	-140.9760437011719	-1085.922607421875	755.341064453125	-118.1771545410156	-1176.415405273438	45.7600212097168	-155.4953308105469	-1100.548095703125	368.5317993164062	-146.7499237060547	-977.4227294921875	48.89778137207031	-200.4216461181641	-1032.654296875	48.25688934326172	-242.3871917724609	-1072.294311523438	37.56328582763672	-129.9333190917969	-1223.977294921875	43.25711822509766	-209.4061126708984	-995.4889526367188	761.9028930664062	-501.1094665527344	-1034.317749023438	861.345703125	-59.79064178466797	nan	nan	nan	nan	nan	nan	nan	nan	nan	nan	nan	nan	
4	0.03	-1245.783447265625	1013.706176757812	-231.0668640136719	-1236.51953125	1003.542114257812	-404.6025085449219	-1221.9853515625	1077.074951171875	-321.6293029785156	-971	1255.28369140625	-320.3698120117188	-1235.96826171875	1188.8466796875	-325.0322875976562	-1193.8701171875	1433.65283203125	-345.31689453125	-1035.455078125	1355.7294921875	-329.1467895507812	-1245.082153320312	1296.9921875	-267.4935913085938	-1203.232299804688	1395.239013671875	-450.24267578125	-1109.789794921875	1402.223510742188	-498.8712768554688	-1123.783325195312	1280.590942382812	-570.0908813476562	-1098.764404296875	1076.43603515625	-574.952392578125	-1170.21142578125	1061.524780273438	-528.8969116210938	-1029.485229492188	857.4994506835938	-494.2366638183594	-1040.323364257812	842.9469604492188	-564.3409423828125	-1077.391967773438	972.1876831054688	-574.8798217773438	-1016.306030273438	674.8969116210938	-488.0312194824219	-1031.531860351562	755.3062744140625	-557.9496459960938	-1132.0859375	1415.740112304688	-182.3426666259766	-1137.3271484375	1356.133544921875	-114.3730239868164	-1111.873657226562	1086.9208984375	-67.42716217041016	-1151.885498046875	1077.947265625	-153.6900329589844	-1005.624816894531	868.9602661132812	-139.1041107177734	-1080.151245117188	1021.220703125	-59.68905258178711	-990.1052856445312	683.570556640625	-144.6360015869141	-967.3247680664062	754.9611206054688	-129.5575103759766	-1004.871887207031	751.191650390625	-69.49709320068359	-1196.496948242188	1594.01318359375	-297.6458129882812	-998.3812866210938	1645.816650390625	-357.0414733886719	-1029.69287109375	1644.506958007812	-269.0074462890625	-1147.349365234375	1585.889282226562	-434.6672668457031	-1166.797729492188	953.257568359375	-497.2415466308594	-1148.088623046875	963.76904296875	-124.3394012451172	-1026.159301757812	967.8819580078125	-190.8179016113281	-1028.409545898438	959.921142578125	-442.6822204589844	-1121.477416992188	487.1973266601562	-463.5006103515625	-1119.755737304688	629.4615478515625	-484.8664245605469	-1206.727172851562	47.68755722045898	-448.3565979003906	-1175.38720703125	266.0203552246094	-465.2127990722656	-997.6801147460938	41.62980270385742	-401.5999450683594	-1064.671875	34.54268264770508	-357.1798095703125	-1085.05224609375	44.20003128051758	-468.77099609375	-1249.836181640625	39.9183464050293	-387.2214660644531	-1105.33984375	491.7907409667969	-140.9984283447266	-1085.822143554688	755.34033203125	-118.1110000610352	-1176.408447265625	45.77210235595703	-155.5082397460938	-1100.56396484375	368.5465087890625	-146.7519073486328	-977.4173583984375	48.87878036499023	-200.4228363037109	-1032.63671875	48.24710845947266	-242.3859558105469	-1072.296875	37.56316757202148	-129.9319763183594	-1223.96875	43.27101135253906	-209.4163360595703	-994.8047485351562	762.0040283203125	-501.8171997070312	-1034.969604492188	861.1708984375	-58.83945083618164	nan	nan	nan	nan	nan	nan	nan	nan	nan	nan	nan	nan	
